<?xml version="1.0" encoding="utf-8"?>
<!-- Generator: Adobe Illustrator 24.0.1, SVG Export Plug-In . SVG Version: 6.00 Build 0)  -->
<svg version="1.1" id="Layer_1" xmlns="http://www.w3.org/2000/svg" xmlns:xlink="http://www.w3.org/1999/xlink" x="0px" y="0px"
	 viewBox="0 0 188.3 41" style="enable-background:new 0 0 188.3 41;" xml:space="preserve">
<style type="text/css">
	.st0{fill:url(#SVGID_1_);}
	.st1{fill:#0675CE;}
	.st2{fill:#FFFFFF;}
</style>
<g>
	<g>
		
			<linearGradient id="SVGID_1_" gradientUnits="userSpaceOnUse" x1="45.3" y1="22.4457" x2="181.8677" y2="22.4457" gradientTransform="matrix(1 0 0 -1 0 42.6456)">
			<stop  offset="3.003438e-02" style="stop-color:#005B9D"/>
			<stop  offset="0.1839" style="stop-color:#0865A5"/>
			<stop  offset="0.4468" style="stop-color:#1C80B9"/>
			<stop  offset="0.7848" style="stop-color:#3EACDA"/>
			<stop  offset="1" style="stop-color:#56CCF2"/>
		</linearGradient>
		<path class="st0" d="M79.1,25.2L72.5,7.3h-6.2l10.3,25.6h4.9L91.8,7.3h-6L79.1,25.2z M50.8,22.5h12v-5h-12v-5.1h13.6v-5H45.3v25.4
			h19.3v-5H50.8V22.5z M99.2,22.5h12v-5h-12v-5.1h13.6v-5H93.7v25.4H113v-5H99.2V22.5z M173.7,17.6c-4.4-1.1-5.5-1.7-5.5-3.3v-0.1
			c0-1.2,1.1-2.2,3.3-2.2c2.1,0,4.4,0.9,6.6,2.5l2.9-4.2c-2.6-2.1-5.7-3.2-9.4-3.2c-5.2,0-8.9,3-8.9,7.6v0.1c0,5,3.3,6.5,8.4,7.8
			c4.2,1.1,5.1,1.8,5.1,3.2v0.1c0,1.5-1.4,2.4-3.7,2.4c-2.9,0-5.3-1.2-7.6-3.1l-3.3,4c3,2.7,6.9,4.1,10.8,4.1c5.5,0,9.3-2.8,9.3-7.9
			v-0.1C181.8,20.8,178.9,18.9,173.7,17.6z M132.9,23L121,7.4h-5.1v25.4h5.5V16.6l12.3,16.1h4.7V7.4h-5.5V23z M161.7,7.4h-21v5.1
			h7.7v20.2h5.6V12.5h7.7V7.4z"/>
	</g>
</g>
<path class="st1" d="M33,3H6.7C4.6,3,2.9,4.8,2.9,6.9v26.3c0,2.1,1.7,3.8,3.8,3.8H33c2.1,0,3.8-1.7,3.8-3.8V6.9
	C36.9,4.8,35.1,3,33,3z"/>
<path class="st2" d="M10,15.1l3.2,6.3c0.1-0.4,0.2-0.7,0.3-1c1-3.3,1.9-6.6,2.9-9.8c0.1-0.3,0.2-0.3,0.4-0.3c1.4,0,2.8,0,4.2,0h0.3
	c-0.2,0.9-0.5,1.7-0.7,2.5c-1.6,5.6-3.3,11.1-4.9,16.7c-0.1,0.3-0.2,0.4-0.5,0.4c-1.2,0-2.3,0-3.5,0c-0.2,0-0.3-0.1-0.4-0.3
	c-1-2.2-2-4.5-3-6.7c-0.1-0.1-0.1-0.2,0-0.4C8.8,20,9.4,17.6,10,15.1z"/>
<path class="st2" d="M32,10.3c-0.2,0.8-0.4,1.5-0.7,2.3c-1.7,5.6-3.3,11.3-5,16.9c-0.1,0.2-0.2,0.3-0.4,0.3c-1.4,0-2.9,0-4.3,0
	c-0.1,0-0.1,0-0.2,0c0.2-0.7,0.4-1.4,0.6-2.1c0.5-1.6,0.9-3.2,1.4-4.8c0.1-0.3,0-0.3-0.2-0.3c-1.2,0-2.5,0-3.7,0
	c-0.4,0-0.4,0-0.3-0.4c0.3-1.3,0.7-2.6,1-3.9c0.1-0.2,0.2-0.3,0.4-0.3c1.3,0,2.6,0,3.9,0c0.3,0,0.4-0.1,0.5-0.4
	c0.7-2.4,1.4-4.7,2.1-7c0-0.1,0.1-0.3,0.3-0.2C28.9,10.2,30.4,10.2,32,10.3C32,10.3,32,10.3,32,10.3z"/>
</svg>
